<svg width="130" height="200" viewBox="0 0 145 163" fill="none" xmlns="http://www.w3.org/2000/svg">
<path fill-rule="evenodd" clip-rule="evenodd" d="M117.786 164.845C115.591 156.357 113.573 152.758 109.675 149.807C106.029 147.048 100.706 144.73 92.9402 143.037C84.8512 141.626 84.6219 137.433 82.5937 130.694C82.002 128.668 79.07 128.129 77.8045 129.589C77.6261 129.397 77.4401 129.222 77.2475 129.063C77.4198 128.096 76.0093 125.327 76.0564 124.403C76.5483 114.756 73.3845 109.911 65.4879 108.11C63.7706 107.719 52.1059 107.488 50.4315 107.95C43.1113 109.968 35.9052 116.377 37.008 124.097C34.7102 127.092 32.4613 128.92 28.9163 129.885C21.027 130.884 13.1385 131.773 5.24717 132.533C-10.1999 134.949 -24.6829 143.104 -34.5816 154.997C-35.4946 156.095 -35.7584 157.585 -34.9526 158.756C-35.5838 161.452 -39.1369 167.993 -36.3412 169.841C-40.9386 180.808 -51.5165 202.004 -51.5363 208.06C-51.6197 233.499 -48.8643 266.612 -23.6941 280.69C-22.6864 281.678 -22.5422 282.772 -22.1058 284.242C-20.9992 288.873 -16.9804 292.183 -12.5816 291.913C9.08751 292.393 30.0755 289.757 51.7451 289.629C61.3013 289.573 72.7937 290.995 81.0951 291.943C89.3966 292.891 97.7765 292.053 105.743 289.629C106.415 290.684 107.773 291.298 109.151 290.995C117.41 289.359 124.088 284.283 129.905 278.735C131.682 275.51 138.624 266.321 135.865 263.123C138.366 252.577 138.236 241.245 133.791 231.203C134.422 229.362 133.273 227.339 133.791 225.438C134.167 224.062 135.127 223.493 135.611 222.131C136.291 220.214 135.551 217.643 134.785 215.687C134.471 214.712 135.363 213.663 135.611 212.668C136.786 207.976 134.095 208.389 132.154 205.253C132.183 205.243 132.688 203.004 132.685 203.015C132.982 201.416 132.238 199.368 131.589 198.033C131.15 197.131 130.21 196.567 129.276 196.67C130.217 193.486 131.406 190.836 132.685 187.767C134.948 182.359 137.811 177.18 141.06 172.284C142.39 170.28 140.604 167.957 138.451 167.821C131.482 167.379 124.591 166.378 117.786 164.845Z" fill="#F9C8BE"/>
<path fill-rule="evenodd" clip-rule="evenodd" d="M97.4494 205.746C94.6624 204.656 91.6614 204.054 88.6453 203.82C90.2692 203.536 91.8978 203.262 93.5395 203.122C94.685 203.024 95.7472 203.034 96.6082 203.901C97.1825 204.478 97.4519 205.221 97.8295 205.904C97.7062 205.849 97.5778 205.796 97.4494 205.746ZM127.363 195.555C122.799 195.786 118.23 196.869 114.101 198.83C112.411 199.633 110.881 200.794 110.432 202.702C110.206 203.677 110.261 204.684 110.382 205.669C110.473 206.414 110.495 207.366 111.145 207.871C111.256 207.956 111.374 208.022 111.497 208.069C109.974 208.755 108.524 209.579 107.235 210.428C106.057 211.204 104.846 212.399 104.302 213.748C104.257 213.594 104.211 213.452 104.166 213.316C103.24 210.583 101.812 208.346 99.564 206.841C99.9618 206.663 100.236 206.241 100.108 205.659C99.5741 203.225 97.3205 201.11 94.7755 201.261C91.9885 201.424 88.9951 202.436 86.4747 203.715C85.556 203.694 84.6394 203.707 83.7333 203.747C83.5772 203.752 83.5847 203.963 83.7333 203.981C84.4684 204.074 85.2036 204.177 85.9387 204.297C87.6859 204.576 89.4281 204.93 91.1323 205.37C93.1768 205.897 95.2916 206.427 97.2025 207.349C100.908 209.139 103.202 213.821 102.731 217.894C102.653 218.562 102.394 220.581 101.465 220.373C100.679 220.197 100.367 218.562 100.093 217.957C99.3575 216.349 98.0333 215.3 96.4447 214.589C94.5791 213.753 92.5827 213.188 90.6489 212.53C89.554 212.156 88.4588 211.781 87.3612 211.409C86.2383 211.026 85.1708 210.495 83.975 210.764C83.2524 210.927 83.1693 211.786 83.5747 212.279C84.1915 213.029 85.1079 213.25 85.9966 213.559C87.1698 213.966 88.3405 214.373 89.5112 214.78C91.3211 215.408 93.2171 215.938 94.9817 216.706L94.9266 216.832C94.7828 216.791 94.6141 216.935 94.6421 217.11C94.9064 218.735 95.274 220.614 94.8659 222.241C94.5439 223.532 93.4082 224.961 91.9331 224.582C92.1647 224.371 92.2503 224.007 92.0943 223.67C91.5099 222.425 83.8566 217.507 83.1744 219.333C83.1517 219.398 83.222 219.446 83.2776 219.436C83.8592 219.315 84.8335 220.305 85.299 220.619C85.9712 221.071 86.6535 221.513 87.3184 221.978C88.0459 222.485 88.7559 223.018 89.4482 223.567C89.9921 223.999 90.4024 224.449 91.0265 224.668C90.6995 224.823 90.4399 225.112 90.3294 225.481C90.0474 226.443 89.5036 227.259 88.5595 227.684C87.5701 228.125 86.4548 227.847 85.4125 227.955C83.9926 228.098 82.7539 228.771 81.7192 229.733C79.5465 231.757 78.4564 235.323 75.4176 236.28C73.6024 236.85 71.5884 236.491 69.7505 236.232C67.6986 235.944 65.6997 235.715 63.6327 236.016C61.6539 236.305 59.7833 236.988 57.9757 237.822C56.2813 238.603 54.4082 239.487 52.9052 240.652C52.5955 239.701 52.2833 238.759 52.0464 237.787C51.4878 235.489 51.1857 233.148 51.1124 230.788C51.0447 228.54 51.1706 226.282 51.3642 224.044C51.4601 222.927 51.6111 221.814 51.7068 220.697C51.7317 220.415 51.7823 220.114 51.8201 219.813C54.5039 218.233 57.3233 217.023 60.1657 215.777C60.1735 215.775 60.1811 215.769 60.1886 215.767C60.2767 215.727 60.3623 215.689 60.4505 215.652C60.4479 215.646 60.4454 215.641 60.4404 215.636C60.7652 215.438 60.9917 215.174 61.1277 214.878C65.2238 212.168 68.6478 208.469 71.2006 204.154C72.2706 202.346 73.3003 200.47 74.7001 198.885C76.1905 197.195 77.9604 196.19 80.1507 195.668C82.7111 195.055 85.3496 194.688 87.9729 194.48C89.4054 194.367 91.0064 194.191 92.5676 194.199C93.6552 194.206 94.7199 194.299 95.6969 194.568C97.1446 194.965 97.9905 196.062 98.8993 197.172C99.7679 198.237 100.631 199.305 101.442 200.415C102.21 201.467 102.935 202.554 103.564 203.694C103.942 204.378 104.292 205.081 104.587 205.807C104.69 206.063 104.826 206.354 104.889 206.62C104.952 206.889 104.836 207.173 105.138 207.173C103.892 207.19 103.904 209.177 105.143 209.104C109.992 208.823 103.046 199.38 102.031 198.064C100.593 196.2 99.1108 193.769 96.8097 192.903C96.777 192.89 96.7418 192.878 96.709 192.868C97.3787 192.235 97.9074 191.477 98.4134 190.705C98.9346 189.912 99.5562 189.003 99.7276 188.061C99.8359 187.461 99.0882 187.119 98.7332 187.644C98.2171 188.41 97.9678 189.379 97.5826 190.221C97.1899 191.075 96.7115 191.881 96.3339 192.742C95.425 192.463 94.4432 192.336 93.4437 192.293C94.705 190.59 96.8598 187.305 97.1194 186.883C98.3127 184.929 99.4482 182.915 100.533 180.898C101.706 178.713 102.711 176.438 103.834 174.228C104.471 172.975 105.113 171.712 105.82 170.496C106.064 170.079 106.326 169.662 106.623 169.283C106.681 169.208 106.754 169.145 106.822 169.075C106.9 169.032 106.981 168.984 107.026 168.959C107.434 168.726 107.578 168.183 107.864 167.839C108.323 167.284 108.862 167.219 109.551 167.211C111.021 167.196 112.497 167.254 113.965 167.294C116.122 167.354 118.277 167.44 120.432 167.553C121.084 167.588 121.734 167.623 122.386 167.663C125.521 167.849 128.652 168.093 131.777 168.392C134.541 168.655 137.305 169.085 140.072 169.291C136.326 178.169 132.172 186.886 127.469 195.299C127.421 195.384 127.386 195.47 127.363 195.555ZM106.578 218.426C105.974 218.703 105.387 219.047 104.841 219.439C104.932 218.828 104.954 218.185 104.929 217.54C105.38 218.022 105.956 218.298 106.578 218.426ZM132.371 203.155C132.328 203.159 132.288 203.182 132.268 203.225C131.432 204.945 131.782 206.866 133.147 208.215C133.862 208.918 135.42 209.712 135.369 210.867C135.327 211.801 134.307 212.585 133.872 213.356C133.466 214.074 133.315 214.863 133.64 215.641C134.055 216.638 135.216 217.035 135.614 218.015C136.117 219.258 135.299 220.757 134.725 221.839C134.191 222.841 133.501 223.843 133.043 224.903C129.974 226.488 127.228 228.919 124.866 231.388C122.281 234.088 120.063 237.264 115.956 237.184C115.546 237.177 115.234 237.393 115.048 237.691C113.905 237.744 112.759 237.767 111.616 237.772C109.607 237.782 107.598 237.762 105.591 237.699C105.45 237.214 105.554 236.556 105.546 236.147C105.521 234.828 105.508 233.512 105.453 232.194C105.438 231.827 105.423 231.458 105.408 231.091C106.13 232.395 107.54 232.987 109.146 232.897C111.729 232.747 114.327 232.324 116.885 231.945C118.232 231.747 119.577 231.521 120.919 231.28C122.021 231.084 123.577 231.134 124.348 230.253C124.529 230.047 124.539 229.67 124.254 229.532C123.492 229.158 123.011 229.366 122.172 229.527C121.15 229.725 120.126 229.914 119.098 230.09C117.127 230.431 115.151 230.747 113.169 231.026C112.042 231.184 110.911 231.34 109.781 231.463C108.794 231.569 107.681 231.712 106.885 230.971C105.282 229.474 106.181 226.965 107.195 225.453C107.215 225.423 107.215 225.395 107.208 225.37C108.164 225.147 109.119 224.886 110.07 224.702C111.901 224.351 113.743 224.055 115.589 223.791C119.38 223.251 123.197 222.894 127.008 222.535C127.953 222.445 127.963 220.963 127.008 221.051C121.533 221.551 116.029 222.025 110.627 223.078C109.272 223.339 107.927 223.635 106.591 223.969C105.959 224.125 105.282 224.369 104.62 224.376C104.579 224.376 104.539 224.376 104.499 224.373C103.202 224.333 103.013 223.226 103.726 222.304C103.814 222.191 103.905 222.078 103.998 221.97C105.257 220.473 106.825 219.474 108.441 218.439C110.251 218.193 112.057 217.645 113.829 217.243C118.205 216.249 122.58 215.254 126.958 214.262C127.817 214.066 127.452 212.75 126.593 212.944C123.27 213.695 119.947 214.446 116.623 215.197L111.76 216.297C110.788 216.515 109.574 216.955 108.431 217.113C107.867 217.191 107.321 217.201 106.828 217.085C105.234 216.709 105.153 214.722 105.841 213.542C106.611 212.216 108.066 211.387 109.358 210.636C111.596 209.332 113.978 208.396 116.304 207.316C116.717 207.225 117.13 207.135 117.542 207.045C119.944 206.517 122.688 206.258 124.949 205.292C125.627 205.005 125.256 203.94 124.587 203.956C122.832 203.993 120.997 204.616 119.282 204.985C117.427 205.387 115.569 205.786 113.713 206.186C113.527 206.226 112.424 206.577 112.258 206.5C112.152 206.449 112.115 206.083 112.079 205.842C111.966 205.048 111.883 204.214 112.006 203.418C112.278 201.632 113.771 200.794 115.282 200.108C118.645 198.584 122.333 197.63 126.004 197.248C126.85 197.16 127.696 197.105 128.547 197.077C129.546 197.047 130.37 196.871 130.876 197.853C131.671 199.4 132.109 201.389 132.371 203.155ZM127.7 259.246C126.967 256.717 127.166 254.017 126.664 251.438C126.405 250.108 126.051 248.788 125.665 247.489C125.354 246.44 124.834 245.324 124.775 244.229C124.771 244.156 124.858 244.113 124.917 244.147C125.951 244.738 126.745 246.015 127.335 247.017C128.041 248.216 128.58 249.472 129.014 250.792C129.881 253.422 130.592 256.595 129.475 259.246C129.142 260.035 127.974 260.193 127.7 259.246ZM105.05 225.755C105.67 225.695 106.289 225.576 106.908 225.438C106.216 226.111 105.576 226.922 105.221 227.822C105.166 227.131 105.095 226.443 105.002 225.757C105.017 225.757 105.035 225.757 105.05 225.755ZM99.098 278.387C98.0059 277.626 97.21 276.564 96.2838 275.626C95.373 274.703 96.7969 273.282 97.708 274.205C98.4983 275.005 99.1843 276.005 100.114 276.652C100.562 276.963 100.769 277.526 100.476 278.026C100.217 278.468 99.5444 278.697 99.098 278.387ZM93.0073 249.167C95.001 248.307 96.9617 247.371 99.0483 246.751C100.295 246.381 100.823 248.32 99.5838 248.688C97.6621 249.259 95.8598 250.11 94.0239 250.902C92.8452 251.41 91.8208 249.679 93.0073 249.167ZM71.9524 248.565C71.4648 247.365 73.4141 246.848 73.8945 248.031C74.4476 249.393 75.0816 250.72 75.6347 252.082C76.1218 253.282 74.1729 253.799 73.6926 252.616C73.1395 251.254 72.5053 249.927 71.9524 248.565ZM51.171 272.529C50.8462 272.961 50.3047 273.195 49.7931 272.89C49.3646 272.633 49.103 271.952 49.4318 271.515C50.3918 270.239 51.3643 268.978 52.4894 267.84C53.4016 266.918 54.825 268.339 53.9137 269.261C52.9089 270.277 52.0285 271.389 51.171 272.529ZM48.1994 138.07C49.1239 138.7 49.9338 139.465 50.7236 140.252C51.6418 141.168 50.2173 142.588 49.2991 141.673C48.6337 141.009 47.9625 140.336 47.1828 139.805C46.7324 139.498 46.5302 138.927 46.8215 138.43C47.0826 137.985 47.75 137.764 48.1994 138.07ZM78.4336 170.401C77.911 171.445 77.4404 172.469 77.4107 173.655C77.379 174.948 75.3649 174.949 75.3969 173.655C75.4354 172.102 76.0094 170.756 76.6945 169.387C77.274 168.229 79.0106 169.247 78.4336 170.401ZM89.5268 144.435C90.6096 143.715 91.6169 145.456 90.5436 146.17C89.6736 146.748 88.8032 147.327 87.9332 147.906C86.8508 148.626 85.8436 146.885 86.9166 146.171C87.7866 145.592 88.6567 145.014 89.5268 144.435ZM41.4116 189.835C41.2268 191.111 39.2862 190.565 39.4692 189.301C39.7525 187.346 40.0981 185.418 40.6296 183.514C40.9775 182.268 42.9199 182.801 42.5717 184.048C42.0402 185.952 41.6946 187.88 41.4116 189.835ZM34.35 212.849C33.0537 212.822 33.0535 210.813 34.35 210.84C35.5232 210.865 36.6765 211.173 37.8082 211.455C39.067 211.768 38.5302 213.705 37.2727 213.392C36.316 213.154 35.342 212.87 34.35 212.849ZM31.7433 259.21C31.2979 259.426 30.8409 259.621 30.3908 259.826C29.4892 260.237 28.5882 260.649 27.6874 261.062C25.8108 261.921 23.9352 262.783 22.0613 263.648C18.3101 265.381 14.5299 267.052 10.7696 268.765C6.93501 270.512 3.11052 272.283 -0.709195 274.063C-2.50878 274.901 -4.32196 275.708 -6.13162 276.524C-7.67894 277.222 -9.59156 278.442 -11.2902 278.557C-11.3776 278.563 -11.4068 278.452 -11.3569 278.396C-10.7152 277.668 -9.69151 277.244 -8.84811 276.771C-7.98659 276.287 -7.10895 275.833 -6.23534 275.371C-4.41411 274.409 -2.5906 273.454 -0.751743 272.525C2.92648 270.668 6.61175 268.825 10.2978 266.984C14.0571 265.106 17.8116 263.216 21.6039 261.405C23.3893 260.552 25.1766 259.702 26.9648 258.854C27.9336 258.395 28.9029 257.937 29.8722 257.479C30.2909 257.282 30.7052 257.068 31.1332 256.891C31.702 256.657 32.1342 256.705 32.7208 256.56C33.6775 256.324 34.0917 257.538 33.3573 258.066C32.7526 258.502 32.4343 258.874 31.7433 259.21ZM18.2973 279.811C18.0906 279.31 18.5234 278.701 19.0007 278.575C19.5725 278.425 20.0309 278.772 20.2396 279.277C20.7917 280.617 21.5782 281.846 22.5906 282.885C23.4954 283.812 22.0719 285.233 21.1664 284.305C19.8977 283.004 18.9864 281.483 18.2973 279.811ZM8.40542 247.562C7.48726 246.646 8.91171 245.226 9.82963 246.141L12.4399 248.745C13.358 249.661 11.9333 251.081 11.0157 250.166L8.40542 247.562ZM-18.3744 243.317C-20.251 243.866 -22.4398 244.371 -23.7193 245.968C-23.7817 246.046 -23.8867 245.946 -23.8492 245.868C-22.2112 242.48 -17.5139 241.292 -14.2616 240.106C-11.9613 239.266 -9.60105 238.57 -7.22091 237.948C-7.45882 235.24 -6.80273 232.337 -6.57464 229.641C-6.33119 226.764 -6.13305 223.879 -6.03134 220.992C-5.92736 218.047 -5.90219 215.083 -5.99936 212.138C-6.09604 209.203 -6.47796 206.304 -6.64513 203.379C-6.66124 203.097 -6.26648 203.083 -6.18139 203.317C-5.19298 206.031 -4.77077 209.037 -4.44902 211.899C-4.11771 214.847 -4.00769 217.787 -4.04998 220.752C-4.09379 223.801 -4.27153 226.843 -4.51549 229.882C-4.63105 231.322 -4.76524 232.761 -4.89187 234.2C-4.98855 235.299 -5.03336 236.388 -5.25793 237.452C-3.82239 237.101 -2.38358 236.768 -0.9493 236.445C3.62418 235.416 8.2168 234.46 12.7711 233.347C15.0068 232.801 17.2104 232.146 19.436 231.565C21.5317 231.018 23.7436 230.354 25.8952 230.11C26.663 230.023 26.7607 231.071 26.2524 231.426C24.5037 232.651 22.1812 233.504 20.1613 234.189C18.1342 234.877 16.0269 235.372 13.9491 235.882C9.61608 236.945 5.24199 237.814 0.874452 238.72C-3.48705 239.624 -7.85686 240.522 -12.1693 241.637C-14.246 242.175 -16.3158 242.714 -18.3744 243.317ZM-28.658 189.567C-29.7793 190.224 -30.7916 188.487 -29.6743 187.832C-28.2123 186.976 -26.6542 186.333 -25.0835 185.706C-23.878 185.224 -23.3594 187.168 -24.548 187.643C-25.9596 188.207 -27.3443 188.798 -28.658 189.567ZM-32.7186 264.21C-33.8429 264.86 -34.856 263.123 -33.7349 262.475C-32.1604 261.565 -30.4361 260.957 -28.8044 260.161C-27.6436 259.594 -26.6239 261.327 -27.7881 261.896C-29.4195 262.692 -31.144 263.3 -32.7186 264.21ZM-34.5447 221.839C-33.4576 222.869 -32.0067 223.354 -30.6387 223.895C-29.4458 224.367 -29.969 226.309 -31.1742 225.833C-32.8786 225.158 -34.6147 224.543 -35.969 223.259C-36.911 222.367 -35.4843 220.949 -34.5447 221.839ZM-22.5179 164.296C-21.3228 164.764 -21.8462 166.706 -23.0534 166.234C-24.3922 165.71 -25.7749 165.311 -27.1138 164.787C-28.3086 164.32 -27.7854 162.378 -26.5783 162.85C-25.2394 163.374 -23.8567 163.772 -22.5179 164.296ZM-1.30134 141.44C-0.0314564 141.227 0.509326 143.163 -0.765843 143.378C-2.34791 143.644 -3.90581 143.956 -5.4063 144.535C-6.61803 145.003 -7.13791 143.059 -5.9418 142.598C-4.44105 142.019 -2.88315 141.707 -1.30134 141.44ZM5.70899 197.089C4.54459 196.518 5.56624 194.786 6.72535 195.354C7.94689 195.953 9.21249 196.416 10.5453 196.7C11.8144 196.969 11.2739 198.906 10.0098 198.637C8.50983 198.318 7.0826 197.763 5.70899 197.089ZM12.3302 165.743C13.584 165.4 14.1142 167.339 12.8657 167.68C10.6691 168.281 8.40755 168.593 6.19483 169.127C4.93377 169.431 4.40029 167.494 5.65934 167.19C7.87206 166.655 10.1339 166.344 12.3302 165.743ZM40.418 155.906C41.6929 156.141 41.1496 158.077 39.8828 157.844C38.5341 157.595 37.1673 157.591 35.8 157.59C34.5019 157.589 34.5042 155.58 35.8 155.581C37.3533 155.582 38.8868 155.624 40.418 155.906ZM132.024 166.403C128.733 166.089 125.438 165.838 122.137 165.649C121.983 165.641 121.832 165.632 121.679 165.624C121.661 165.589 121.639 165.556 121.616 165.521C120.538 163.944 119.745 162.367 119.058 160.583C118.401 158.886 117.764 157.135 116.752 155.604C115.598 153.858 114.039 152.492 112.331 151.309C111.295 152.004 110.334 152.817 109.454 153.68C108.528 154.587 107.104 153.167 108.03 152.259C108.812 151.493 109.646 150.785 110.528 150.145C109.509 149.528 108.47 148.947 107.457 148.37C103.658 146.208 99.7681 144.209 95.7978 142.381C93.9524 141.529 92.0843 140.773 90.2037 140.007C89.1914 139.596 88.1921 139.066 87.18 138.589C87.253 137.875 87.0391 137.077 86.4902 136.607C86.0849 136.263 85.7702 136.135 85.2868 135.891C85.1785 135.853 85.1131 135.831 85.0829 135.818C85.1055 135.823 85.171 135.843 85.279 135.879C85.536 135.997 85.5562 135.961 85.3397 135.776C85.3271 135.369 84.5237 134.51 84.3402 134.091C83.7007 132.651 83.5018 131.13 82.5577 129.819C81.2561 128.013 79.0708 127.33 77.0338 127.943C76.8226 125.77 76.7672 123.503 75.9465 121.564C75.9238 121.511 75.8508 121.488 75.8181 121.546C74.9621 123 74.8891 124.62 74.8236 126.298C74.7607 127.872 74.8209 129.482 75.0276 131.047C74.8966 131.147 74.7632 131.243 74.6247 131.335C73.9752 131.762 73.2753 132.091 72.5402 132.335C71.1404 132.797 69.6726 132.998 68.2048 133.068C64.4158 133.249 60.511 132.867 56.785 132.219C53.0161 131.564 47.2382 130.58 43.8848 128.698C41.6715 127.458 39.63 125.943 37.5603 124.477C38.3108 122.066 38.5021 119.474 37.7468 117.437C37.6562 117.194 37.2735 117.148 37.2005 117.437C36.7272 119.381 36.5887 121.335 35.9593 123.256C35.9493 123.284 35.9392 123.314 35.9291 123.342C35.7328 123.209 35.5364 123.078 35.34 122.947C34.8868 122.648 34.27 122.872 33.9981 123.299C29.65 130.132 22.7646 130.524 15.534 131.745C7.62092 133.081 -0.331941 134.522 -7.94015 137.137C-15.216 139.638 -22.1697 143.28 -27.6782 148.72C-28.9251 149.951 -30.0913 151.264 -31.192 152.634C-30.127 152.767 -29.0709 152.976 -28.0284 153.303C-26.794 153.689 -27.3244 155.628 -28.5639 155.24C-29.9037 154.82 -31.2585 154.612 -32.627 154.509C-36.37 159.616 -39.2884 165.408 -41.812 171.109C-46.6526 182.039 -49.8034 193.679 -51.2533 205.529C-50.4572 205.053 -49.6468 204.6 -48.8162 204.178C-47.6622 203.593 -46.6443 205.327 -47.7996 205.913C-49.0826 206.564 -50.3288 207.282 -51.5363 208.06C-52.0637 213.247 -52.2681 218.468 -52.1443 223.68C-51.8497 236.107 -50.1679 248.897 -46.3638 260.754C-44.4983 266.573 -42.026 272.344 -38.3428 277.261C-36.6761 279.489 -34.7829 281.498 -32.5523 283.173C-31.4722 283.987 -30.3292 284.713 -29.1233 285.325C-27.5699 286.119 -25.5458 286.38 -24.2064 287.503C-23.7658 287.872 -23.4259 288.359 -23.1691 288.909C-23.3177 289.954 -23.3353 291.001 -23.0483 292.046C-22.9577 292.373 -22.7109 292.639 -22.4063 292.767C-22.4013 292.857 -22.4013 292.945 -22.4013 293.03C-22.4013 293.071 -22.3408 293.081 -22.3333 293.041C-22.3207 292.963 -22.3081 292.885 -22.2955 292.805C-22.1973 292.837 -22.0941 292.852 -21.9884 292.852C-18.1641 292.867 -14.3351 292.774 -10.5058 292.644C-10.8019 291.739 -11.1227 290.842 -11.4306 289.937C-11.8487 288.708 -9.90287 288.186 -9.48847 289.403C-9.1282 290.461 -8.75157 291.51 -8.41648 292.571C-4.31353 292.419 -0.211849 292.236 3.88253 292.101C12.5909 291.812 21.2968 291.717 30.0075 291.534C43.5348 291.248 57.1606 290.662 70.7088 291.235C71.1774 290.243 71.7018 289.274 72.199 288.295C72.7856 287.141 74.5228 288.159 73.9382 289.309C73.5925 289.989 73.2345 290.661 72.8944 291.339C75.6383 291.481 78.3795 291.669 81.1149 291.926C85.7825 292.362 90.4051 293.138 95.0677 293.621C99.8081 294.113 104.446 294.025 109.149 293.244C109.995 293.103 110.493 292.593 110.7 291.961C110.707 291.958 110.712 291.953 110.717 291.945C110.959 291.664 111.185 291.431 111.419 291.227C111.699 291.047 112.001 290.893 112.356 290.758C113.018 290.506 113.708 290.353 114.408 290.25C115.178 290.135 115.959 290.125 116.729 290.03C117.378 289.947 118.013 289.823 118.647 289.673C119.788 289.402 120.871 289.048 121.948 288.578C122.887 288.169 123.735 287.581 124.536 286.94C126.193 285.732 127.628 284.19 128.882 282.588C129.612 281.651 130.299 280.679 130.923 279.667C132.011 277.914 132.938 276.093 133.874 274.258C134.214 273.714 134.524 273.157 134.808 272.588C132.977 272.05 131.129 271.611 129.189 271.58C127.892 271.559 127.892 269.55 129.189 269.571C131.414 269.606 133.519 270.125 135.611 270.743C135.713 270.473 135.81 270.201 135.901 269.925C136.15 269.351 136.356 268.76 136.528 268.162C136.628 267.891 136.729 267.62 136.83 267.349C137.056 266.409 137.283 265.468 137.512 264.526C137.968 263.019 138.327 261.49 138.592 259.94C138.814 258.92 138.985 257.893 139.101 256.853C139.453 254.335 139.74 251.821 139.76 249.274C139.73 247.704 139.629 246.137 139.458 244.578C139.385 243.518 139.262 242.463 139.096 241.416C138.879 239.859 138.665 238.317 138.305 236.78C138.036 235.74 137.766 234.7 137.497 233.661C136.825 231.493 136.032 229.369 135.118 227.292C135.067 227.161 134.813 226.875 134.66 226.872C134.544 226.87 134.382 226.975 134.435 227.116C134.441 227.128 134.445 227.143 134.451 227.156C134.398 227.038 134.347 226.917 134.295 226.799C134.249 226.689 134.073 226.468 133.937 226.471C133.929 226.471 133.922 226.471 133.912 226.473C133.947 226.448 133.98 226.415 134.013 226.378C134.916 225.31 135.503 223.906 136.15 222.671C136.686 221.651 137.192 220.576 137.338 219.423C137.466 218.411 137.293 217.414 136.656 216.595C135.931 215.664 134.566 215.227 135.324 213.881C136.185 212.349 137.452 211.02 136.19 209.28C135.548 208.393 134.531 207.906 133.776 207.135C132.907 206.243 132.494 205.051 132.517 203.832C132.57 203.863 132.64 203.848 132.666 203.772C133.396 201.572 132.867 199.156 132.119 197.014C131.711 195.851 130.848 195.532 129.843 195.475C134.194 186.999 138.265 178.387 141.893 169.577C142.013 169.288 142.132 168.999 142.25 168.71C142.426 168.278 142.054 167.703 141.623 167.608C138.486 166.922 135.218 166.704 132.024 166.403Z" fill="#0E426E"/>
<path fill-rule="evenodd" clip-rule="evenodd" d="M70.5795 36.662C41.6044 35.6072 13.9176 55.0327 4.5957 82.4898C3.91836 84.6436 6.02628 86.6555 8.15324 86.2913C5.97794 97.2175 10.7321 111.924 23.1158 113.474C25.6524 113.794 28.2022 113.61 30.7422 113.842C33.0062 114.049 45.3313 120.965 49.9467 122.586C59.6634 125.972 84.1147 125.352 93.8415 122.586C94.1957 123.389 101.75 92.4875 103.47 82.9064C104.097 78.7552 98.3651 75.6819 98.7878 71.4041C99.3307 65.9092 105.774 59.2095 103.8 53.9782C98.5967 40.6637 83.4958 36.9485 70.5795 36.662Z" fill="#F9C8BE"/>
<path fill-rule="evenodd" clip-rule="evenodd" d="M56.1895 12.4581C57.4911 12.5661 58.8002 12.7494 60.0867 12.9905C63.9966 12.3526 68.0423 13.0609 71.8339 14.2889C80.7135 17.1645 89.2607 22.1572 95.9525 28.6743C99.3966 32.0296 102.214 35.8946 103.948 40.3901C104.83 42.6704 105.326 45.104 105.469 47.5426L105.485 47.8381C105.525 48.6472 105.544 49.6174 105.447 50.5784C105.757 52.5185 106.033 54.4743 106.054 56.4365C106.063 57.3454 106.004 58.2528 105.894 59.1541L105.932 59.2398V59.2398C105.771 60.3159 105.579 61.3875 105.361 62.4536L105.306 62.5242C105.276 62.7409 105.241 62.9572 105.209 63.1734C105.09 63.7214 104.966 64.2681 104.834 64.8128C104.549 65.9925 104.234 67.1643 103.894 68.3291C103.835 68.5333 103.892 68.6942 104.003 68.8C103.756 69.6865 103.485 70.5665 103.185 71.437C103.332 72.1987 103.481 72.9601 103.639 73.7191C104.462 77.667 105.159 81.6401 106.096 85.5654C107.994 93.5316 110.879 101.37 111.672 109.559C112.289 115.911 111.265 122.855 107.307 128.044C103.896 132.514 98.7647 135.153 93.2234 135.857C90.5724 136.196 87.8534 136.04 85.2603 135.372L84.9777 135.297C83.6787 134.949 82.0263 134.403 80.8192 133.523C79.51 133.064 78.2739 132.215 77.5287 131.386C76.5116 130.254 75.4013 128.317 75.6782 126.707C74.1652 126.83 72.642 126.866 71.144 126.861C67.4532 126.853 63.7297 126.562 60.1799 125.492C57.0127 124.538 53.3219 122.943 51.4488 120.065C51.3607 119.929 51.5067 119.733 51.6603 119.786C53.1734 120.316 54.5883 121.032 56.1492 121.436C57.6849 121.833 59.2207 122.207 60.8042 122.37C63.9003 122.688 67.0427 122.646 70.1492 122.493L71.2155 122.438C74.5395 122.26 77.9748 122.007 81.0835 120.765C82.3033 120.279 83.4322 119.599 84.4616 118.792L84.6233 118.663C85.1747 118.216 85.7436 117.84 86.3227 117.483C86.4058 117.378 86.4888 117.272 86.5719 117.164C87.8886 115.479 89.3035 113.854 90.4893 112.073C92.8458 108.54 93.7546 104.868 93.878 100.654C94.0072 96.2058 94.0221 91.7515 94.0752 87.302L94.0945 85.8191C94.1625 80.7309 94.1726 75.6252 94.5653 70.5497C94.7463 68.1916 95.0039 65.8445 95.3998 63.5145L95.4868 63.0154L96.1262 59.4216C96.2801 58.5559 96.3699 57.6638 96.5666 56.8019C96.3455 56.4403 96.09 56.0922 95.7937 55.7607C95.5205 55.4551 95.2431 55.1585 94.9661 54.8639L94.7665 54.6881C94.3103 54.282 93.9184 53.8944 93.551 53.3358L93.4624 53.1975V53.1975C93.0678 52.7226 92.6957 52.2259 92.3669 51.6801L92.3063 51.5742V51.5742C92.2242 51.4715 92.1426 51.3685 92.0578 51.267C91.7942 50.9508 91.5178 50.6522 91.232 50.3662C90.2298 52.2975 88.8121 53.9703 86.8051 55.0161C86.0792 55.3943 85.1938 55.0703 84.9559 54.2657C84.3554 52.2344 83.4435 50.3456 82.2369 48.6351C80.222 51.9798 77.0272 54.5959 73.2621 55.8725C72.3213 56.1914 71.4927 55.2069 71.7138 54.3277C72.393 51.6251 72.5282 48.8769 72.1292 46.1601C70.708 47.1732 69.2422 48.1273 67.7372 49.0118C64.388 51.5943 60.8395 53.9183 56.9362 55.5872C56.0344 55.9729 54.6771 55.3247 55.087 54.1692C55.4321 53.1963 55.7157 52.2071 55.8973 51.1913L55.9374 50.9564C55.9387 50.9493 55.9392 50.9423 55.9402 50.935C46.9004 63.3745 24.9785 75.3618 23.2959 75.4772L23.2501 75.4776V75.4776C24.301 76.4789 25.1491 77.716 25.704 79.1377C26.2867 80.6309 23.9104 81.2811 23.2959 79.8533L23.2763 79.8055C22.3309 77.383 19.9926 75.6466 17.4485 75.236C15.9108 75.5145 14.4574 76.2541 13.4657 77.3757C11.5145 79.5832 11.4969 82.2453 12.8287 84.7567L13.0241 85.1227C13.7452 86.4643 14.5046 87.809 14.9108 89.2823C15.4068 91.0905 15.0316 92.9239 15.3564 94.7296L15.3741 94.8253C15.528 95.6282 15.8605 96.5416 16.8191 96.3218C16.8932 96.3047 16.9647 96.2819 17.0359 96.2575C17.2381 96.4183 17.4813 96.5511 17.7844 96.6393C18.5266 96.855 19.3466 96.7503 20.0852 96.576C20.7987 96.4077 21.4916 96.1438 22.1585 95.8349C22.2322 96.0167 22.2778 96.2068 22.2823 96.3896C22.305 97.3239 21.9173 98.0924 21.3206 98.7177C22.2723 99.9182 23.0855 101.239 24.0019 102.465C25.3186 104.223 26.6655 105.943 28.098 107.608C29.5884 109.344 31.2123 110.983 32.8966 112.533C34.0773 113.618 36.0285 114.778 36.7686 116.353C37.6196 116.617 38.3422 117.267 38.6065 118.337C39.0874 120.276 39.2284 124.819 38.8507 126.79C38.4756 128.744 37.0456 129.962 35.4645 130.992C35.0265 131.278 34.5305 131.248 34.1277 131.035C33.7727 131.379 33.3724 131.695 32.9142 131.976C31.2224 133.019 29.2561 133.398 27.3075 133.616C24.6766 134.455 21.8393 134.676 19.0346 134.154C18.1182 134.262 17.2018 134.36 16.2829 134.44C6.88216 135.256 -2.67467 134.561 -11.8438 132.328C-16.0507 131.303 -20.0232 129.441 -23.7244 127.049C-30.1035 122.926 -32.8034 111.353 -29.102 100.29L-28.8089 99.4175C-27.141 94.4751 -25.3424 89.5586 -22.9313 84.9476L-22.6435 84.3991C-20.4273 80.1936 -17.9895 75.9925 -14.7516 72.4835C-13.1303 70.728 -11.2471 69.1332 -9.11974 68.0182C-8.3121 67.5952 -7.36925 67.3019 -6.44781 66.9691L-6.42899 66.7391V66.7391L-6.40904 66.5093C-6.34836 65.7725 -6.27107 65.0369 -6.17138 64.303C-5.79927 61.5585 -5.2741 58.8545 -4.52814 56.1846C-3.78116 53.5112 -2.86274 50.8828 -1.75776 48.3352C0.0856295 44.0849 2.40082 40.053 5.07326 36.2699C5.26409 35.8791 5.45769 35.4898 5.65608 35.1036C7.90934 30.7111 10.8272 26.522 14.5911 23.2798C18.9113 19.5579 24.1152 17.2474 29.5456 15.625C35.1775 13.9449 41.0536 12.7946 46.9222 12.4079C50.0113 12.2045 53.1054 12.202 56.1895 12.4581ZM15.0017 83.024C17.829 81.1781 21.6809 82.4436 23.1135 85.4425C24.1482 87.6149 20.7268 88.8379 20.1855 86.6731C19.6467 84.5032 17.333 82.9486 15.11 83.2802C14.9564 83.3053 14.8607 83.1144 15.0017 83.024Z" fill="#061C2A"/>
<path fill-rule="evenodd" clip-rule="evenodd" d="M83.6652 102.124C82.8344 103.208 81.3301 104.038 79.6455 104.435C78.0401 104.813 76.2659 104.798 74.7347 104.216L74.6033 104.163C73.4585 103.689 72.3596 102.731 71.9423 101.732C71.7764 101.335 71.7203 100.931 71.8338 100.554C71.936 100.215 72.1754 99.9028 72.5742 99.6347C72.6995 99.5506 72.8674 99.5445 73.0274 99.5726C73.226 99.6075 73.4217 99.7002 73.5397 99.8253C74.1948 100.52 75.1452 101.198 76.2701 101.186C77.138 101.177 77.8468 100.835 78.5341 100.449L79.0171 100.173C79.4831 99.9078 79.9557 99.6586 80.4904 99.5448C81.4476 99.3409 82.6086 99.7134 83.316 100.328C83.6245 100.596 83.8486 100.911 83.9095 101.25C83.9607 101.535 83.8888 101.833 83.6652 102.124ZM78.6894 83.1744C80.5905 84.3272 83.4873 87.0152 81.4421 89.873C79.0347 92.3928 75.5686 89.5037 73.8606 88.197C72.2768 87.1843 70.4974 89.7888 71.9668 90.9713C84.309 100.087 89.3178 83.4759 79.651 81.8191C78.5866 81.6365 78.1913 82.8178 78.6894 83.1744ZM57.2412 65.4574L57.7874 65.308L58.3443 65.1581L58.7209 65.0587C61.3077 64.3833 64.1609 63.7889 66.7261 64.0791C67.6616 64.1851 68.4209 64.7102 68.5533 65.6879C68.6649 66.5129 68.1304 67.5773 67.2208 67.7239C64.208 68.2102 61.1236 68.0524 58.097 68.5537C56.5897 68.8031 55.094 69.1128 53.5925 69.3918C52.4507 69.6042 51.271 69.6788 50.1194 69.8506L50.384 69.8873C50.4767 69.8998 50.4535 70.0553 50.3621 70.049C49.9826 70.0112 49.6024 70.0053 49.2217 70.0319L49.0585 70.0452C48.81 70.0802 48.6635 69.7843 48.885 69.6341C50.2881 68.6846 51.4787 67.6554 53.0497 66.9554C54.4084 66.3502 55.807 65.8512 57.2412 65.4574ZM80.7903 64.0011C82.7792 61.9954 87.0088 62.7662 89.3749 63.6836C90.7253 64.2075 92.0093 64.8698 93.0788 65.8605L93.183 65.958L93.3436 66.112C94.0655 66.8171 94.8706 67.7872 94.756 68.8036C94.7386 68.9586 94.654 69.1356 94.4785 69.1668C93.5309 69.3343 92.6002 68.8355 91.725 68.5354L91.1455 68.337C90.2751 68.0413 89.3993 67.7588 88.502 67.5547C87.3862 67.3016 86.248 67.1551 85.1025 67.1697C83.9446 67.1848 82.7009 67.5108 81.598 67.0522C80.3679 66.5411 79.7302 65.0704 80.7903 64.0011ZM61.1417 80.1765C60.6342 80.6934 59.964 80.9851 59.1063 80.8116C58.4361 80.6761 57.1599 80.0038 56.1405 78.9685C55.443 78.2602 54.8599 77.3752 54.7014 76.3499C54.6645 76.1118 54.5379 75.9591 54.3716 75.863C54.2402 75.7871 54.067 75.7489 53.8784 75.768C53.7182 75.7842 53.5482 75.842 53.4167 75.9187C53.1668 76.0646 53.0645 76.2718 53.0437 76.4265C52.8432 77.9192 53.4212 79.4003 54.3222 80.6491C55.5381 82.3344 57.3237 83.5694 58.3732 83.8585C60.1692 84.3534 62.0617 83.9594 63.4569 82.7125C64.5727 81.7155 65.1446 80.4165 65.6752 79.0808L65.7776 78.8219C65.8969 78.5188 66.0154 78.218 66.1408 77.9203C66.3923 77.3238 66.3118 76.8082 66.0679 76.4064C65.7978 75.9612 65.2991 75.6478 64.744 75.5516C64.2309 75.4626 63.6818 75.5599 63.2483 75.8726C62.8821 76.1367 62.5868 76.5552 62.4819 77.174C62.3113 78.1802 61.9155 79.3347 61.2176 80.0964L61.1417 80.1765ZM91.9381 74.3526C91.5197 74.1351 91.1923 74.0695 90.7281 74.2083C90.4713 74.2852 90.2176 74.4326 90.019 74.6308C89.8221 74.8271 89.6801 75.0714 89.6249 75.3423C89.4891 76.0109 89.1224 76.6368 88.5998 77.0448C88.1531 77.3935 87.5893 77.5784 86.9639 77.4741C86.2891 77.3617 85.6461 76.93 85.2033 76.421C85.08 76.279 84.9789 76.121 84.8811 75.9611L84.8227 75.8651C84.6045 75.5058 84.3924 75.1718 84.0915 74.9079C83.9775 74.8075 83.8056 74.738 83.6391 74.738C83.5715 74.738 83.5028 74.749 83.4374 74.7693C82.7657 75.4418 82.6366 75.9519 82.6582 76.4579C82.6809 76.9885 82.8906 77.5258 83.2295 78.027C84.0245 79.2029 85.5339 80.167 86.5524 80.3853C87.9473 80.6843 89.3325 80.3254 90.4432 79.5482C91.586 78.7486 92.4328 77.5071 92.6968 76.1079C92.7603 75.771 92.7333 75.4072 92.6047 75.0919C92.479 74.7837 92.2599 74.5198 91.9381 74.3526Z" fill="black"/>
</svg>
