<svg width="110" height="130" viewBox="0 0 102 128" fill="none" xmlns="http://www.w3.org/2000/svg">
<path fill-rule="evenodd" clip-rule="evenodd" d="M-23.755 196.312C-18.9379 196.327 -14.2572 196.492 -9.42649 196.508C10.2101 196.573 30.0273 196.478 49.7351 195.683C55.3052 195.458 56.6956 195.464 62.2418 195.115C65.5164 195.104 75.3529 194.833 74.8605 190.379C74.6431 182.084 72.5863 173.824 71.9385 165.551C70.6952 149.998 69.6365 133.959 63.3933 119.413C61.9482 115.939 58.8447 113.667 55.7724 111.624C52.6913 109.421 51.9352 106.974 49.0916 104.484C48.4903 103.958 45.0759 103.744 43.2388 102.408C40.5649 100.465 39.2389 97.2829 38.2413 96.7412C37.5072 96.3427 37.5206 93.5931 36.0493 92.6198C34.0748 91.3139 27.783 90.3428 25.4939 90.1612C23.2967 89.9868 19.4752 90.353 17.4138 91.1564C13.9761 92.4962 12.605 95.0518 11.0911 98.3443C-8.91044 104.517 -27.1923 114.97 -32.8699 136.054C-37.7661 153.738 -37.9455 172.695 -36.054 190.831C-35.6757 192.157 -35.9409 194.236 -34.7931 195.115C-38.7817 195.344 -24.2961 196.165 -23.755 196.312Z" fill="white"/>
<path fill-rule="evenodd" clip-rule="evenodd" d="M67.2196 178.852C66.8411 178.663 66.4465 178.447 66.0143 178.432C65.272 178.406 65.271 177.253 66.0143 177.279C66.6627 177.301 67.232 177.571 67.8026 177.856C68.4682 178.188 67.8827 179.182 67.2196 178.852ZM66.0141 146.389C66.5207 146.389 67.0313 146.453 67.4203 146.807C67.6516 147.017 67.6333 147.41 67.4203 147.623C67.1924 147.85 66.8341 147.832 66.6035 147.623C66.6787 147.691 66.6042 147.623 66.577 147.608C66.5705 147.605 66.5668 147.602 66.5651 147.6C66.5593 147.599 66.5536 147.598 66.5442 147.595C66.4838 147.58 66.4242 147.565 66.3632 147.554C66.3621 147.557 66.2342 147.546 66.2042 147.545C66.1407 147.543 66.0775 147.542 66.0141 147.542C65.7008 147.542 65.4366 147.279 65.4366 146.966C65.4366 146.654 65.702 146.389 66.0141 146.389ZM60.5839 159.325C60.4184 160.05 59.3052 159.741 59.4702 159.019C59.7102 157.968 59.6664 156.892 59.4702 155.838C59.3351 155.111 60.4483 154.803 60.5839 155.531C60.8192 156.796 60.8719 158.065 60.5839 159.325ZM59.1253 117.877C58.2652 117.673 57.4144 117.649 56.5347 117.649C55.7903 117.649 55.7915 116.495 56.5347 116.496C57.5159 116.496 58.4738 116.538 59.4324 116.765C60.1562 116.937 59.8479 118.049 59.1253 117.877ZM56.2428 145.969C55.744 145.72 55.2449 145.471 54.7461 145.221C54.0803 144.889 54.666 143.895 55.329 144.226L56.8258 144.973C57.4913 145.305 56.9057 146.3 56.2428 145.969ZM56.0357 168.68C55.4029 169.591 54.5132 170.157 53.4455 170.44C52.7251 170.631 52.4205 169.518 53.1384 169.328C53.902 169.126 54.5803 168.758 55.0384 168.098C55.4595 167.492 56.4603 168.069 56.0357 168.68ZM52.0446 128.075C51.8734 127.756 51.6157 127.621 51.2958 127.613C50.5526 127.596 50.5524 126.443 51.2958 126.46C52.0248 126.477 52.6934 126.842 53.0417 127.493C53.3924 128.148 52.395 128.73 52.0446 128.075ZM44.7196 135.914C44.5126 136.139 44.1111 136.134 43.9029 135.914C43.7754 135.78 43.6683 135.63 43.584 135.465C43.5519 135.403 43.5218 135.339 43.4865 135.279C43.4708 135.252 43.4533 135.225 43.4354 135.199C43.4294 135.194 43.4168 135.181 43.4038 135.167C43.1819 134.933 43.1876 134.587 43.4038 134.351C43.611 134.126 44.0125 134.132 44.2206 134.351C44.348 134.486 44.4552 134.636 44.5394 134.8C44.5715 134.863 44.6016 134.926 44.637 134.987C44.6527 135.014 44.6702 135.041 44.6881 135.067C44.6942 135.072 44.7066 135.085 44.7196 135.099C44.9416 135.333 44.936 135.679 44.7196 135.914ZM44.1033 152.944C43.3511 153.288 42.5262 153.288 41.774 152.944C41.4892 152.814 41.4216 152.403 41.567 152.155C41.7354 151.867 42.0736 151.819 42.357 151.948C42.6981 152.104 43.1797 152.104 43.5205 151.948C43.8051 151.818 44.1401 151.864 44.3104 152.155C44.4567 152.405 44.3869 152.814 44.1033 152.944ZM42.0514 164.998C41.9222 165.303 41.6431 165.466 41.3169 165.478C40.9936 165.49 40.753 165.204 40.7394 164.901C40.7307 164.706 40.8366 164.539 40.9886 164.435C40.9887 164.425 40.989 164.414 40.989 164.403C40.9892 164.08 41.2535 163.841 41.5665 163.827C41.8782 163.813 42.1441 164.102 42.144 164.403C42.1438 164.607 42.1312 164.809 42.0514 164.998ZM39.0718 184.162C38.1501 184.176 37.2496 184.396 36.3278 184.411C35.583 184.423 35.5853 183.269 36.3278 183.257C37.2494 183.242 38.15 183.023 39.0718 183.008C39.8166 182.996 39.8142 184.15 39.0718 184.162ZM35.2397 110.256C34.7002 110.769 34.0338 111.022 33.3766 111.342C32.7108 111.667 32.1259 110.672 32.7936 110.347C33.3503 110.075 33.9666 109.874 34.4231 109.44C34.9616 108.928 35.7792 109.743 35.2397 110.256ZM33.7914 123.549C33.4128 123.36 33.0183 123.144 32.5862 123.129C31.8437 123.103 31.8427 121.95 32.5862 121.976C33.2344 121.999 33.8038 122.269 34.3743 122.553C35.0403 122.885 34.4546 123.879 33.7914 123.549ZM26.8487 176.901C26.6777 176.581 26.42 176.446 26.1001 176.439C25.3568 176.422 25.3565 175.269 26.1001 175.286C26.8292 175.302 27.4977 175.668 27.8461 176.319C28.1966 176.974 27.1993 177.556 26.8487 176.901ZM24.444 151.857C24.2142 151.647 24.2302 151.255 24.444 151.042C24.6935 150.793 24.9429 150.544 25.1926 150.295C25.4206 150.067 25.7785 150.083 26.0091 150.295C26.2389 150.505 26.2229 150.896 26.0091 151.11C25.7595 151.359 25.5102 151.608 25.2607 151.857C25.0323 152.085 24.6746 152.069 24.444 151.857ZM21.6093 190.888C20.7761 190.868 19.9951 190.629 19.2106 190.369C18.5077 190.135 18.8109 189.022 19.5177 189.257C20.1995 189.483 20.8844 189.717 21.6093 189.734C22.3526 189.751 22.3529 190.905 21.6093 190.888ZM17.8673 166.226C17.1146 166.205 16.4902 165.822 15.9622 165.309C15.4282 164.791 16.2458 163.976 16.7789 164.494C17.0811 164.787 17.4297 165.06 17.8673 165.072C18.6103 165.093 18.6109 166.246 17.8673 166.226ZM20.1912 134.51C20.2003 134.817 20.3302 135.146 20.5211 135.348C21.0314 135.888 20.2158 136.704 19.7044 136.163C19.2826 135.717 19.0541 135.12 19.0363 134.51C19.0149 133.766 20.17 133.77 20.1912 134.51ZM11.3822 109.392C11.1405 108.919 10.8238 108.365 10.342 108.104C9.68779 107.75 10.2715 106.754 10.925 107.108C11.5798 107.463 12.0484 108.163 12.3795 108.81C12.7173 109.47 11.7203 110.053 11.3822 109.392ZM9.88505 121.386C9.61711 121.378 9.35118 121.332 9.09277 121.262C8.98233 121.232 8.87318 121.198 8.7626 121.168C8.71525 121.155 8.51414 121.13 8.63772 121.136C8.32502 121.12 8.06026 120.886 8.06026 120.56C8.06026 120.26 8.32589 119.966 8.63772 119.983C9.06635 120.006 9.45614 120.22 9.88505 120.232C10.6278 120.253 10.6284 121.406 9.88505 121.386ZM6.14271 139.82H4.89539C4.15103 139.82 4.15233 138.666 4.89539 138.666H6.14271C6.88707 138.666 6.88577 139.82 6.14271 139.82ZM4.68754 190.809C4.30931 190.998 3.8635 191.177 3.55716 191.466C3.01694 191.976 2.19926 191.162 2.74049 190.65C3.1307 190.282 3.62963 190.05 4.10474 189.813C4.38466 189.673 4.72883 189.736 4.89485 190.02C5.04485 190.276 4.96646 190.67 4.68754 190.809ZM1.90126 176.237C1.8529 176.224 1.8018 176.214 1.75286 176.208C1.55652 176.181 1.35109 176.19 1.15388 176.19C0.409534 176.19 0.41069 175.036 1.15388 175.037C1.73957 175.037 2.34909 175.045 2.80961 175.455C3.04334 175.663 3.02068 176.059 2.80961 176.27C2.58007 176.499 2.22565 176.477 1.99294 176.27C2.01748 176.292 1.93331 176.246 1.90126 176.237ZM1.15352 156.639C1.32127 156.294 1.32387 156.068 1.32416 155.685C1.32474 154.941 2.47966 154.942 2.47908 155.685C2.47879 156.242 2.39579 156.716 2.1508 157.221C2.01408 157.503 1.6139 157.576 1.36083 157.428C1.07701 157.262 1.01767 156.919 1.15352 156.639ZM-2.18573 129.586C-2.85559 129.813 -3.45355 130.135 -4.04343 130.524C-4.66608 130.934 -5.24398 129.935 -4.62638 129.528C-3.9532 129.085 -3.25692 128.733 -2.49279 128.473C-1.78627 128.234 -1.48584 129.348 -2.18573 129.586ZM-6.081 110.176C-6.57863 110.189 -7.09229 110.38 -7.53579 110.595C-8.20233 110.918 -8.78716 109.924 -8.11859 109.599C-7.48511 109.292 -6.79201 109.042 -6.081 109.022C-5.33621 109.001 -5.33939 110.155 -6.081 110.176ZM-7.8274 161.991C-8.02316 161.999 -8.19048 161.894 -8.29413 161.742C-8.30496 161.742 -8.31564 161.742 -8.32632 161.742C-8.64999 161.741 -8.88964 161.477 -8.90379 161.165C-8.91779 160.854 -8.62834 160.588 -8.32632 160.588C-8.12248 160.588 -7.92022 160.601 -7.73081 160.681C-7.4249 160.81 -7.26235 161.088 -7.24993 161.414C-7.23766 161.737 -7.52437 161.977 -7.8274 161.991ZM-10.667 122.112C-11.3763 122.344 -11.6774 121.23 -10.9741 121C-10.1485 120.731 -9.3048 120.522 -8.47931 120.253C-7.77004 120.021 -7.46889 121.136 -8.17239 121.365C-8.99773 121.634 -9.84155 121.843 -10.667 122.112ZM-13.2571 143.88C-13.4771 144.588 -14.5915 144.284 -14.3709 143.574C-14.1578 142.888 -14.1425 142.198 -14.1421 141.485C-14.1416 140.742 -12.9867 140.743 -12.9871 141.485C-12.9876 142.296 -13.0148 143.1 -13.2571 143.88ZM-20.9791 169.953C-21.0211 170.24 -21.2492 170.447 -21.5477 170.46C-21.8516 170.474 -22.1362 170.186 -22.1252 169.884C-22.104 169.303 -21.63 168.83 -21.0488 168.809C-20.7254 168.797 -20.4849 169.083 -20.4714 169.386C-20.4581 169.68 -20.7044 169.91 -20.9791 169.953ZM-24.8869 136.81C-25.4972 137.013 -26.1493 137.207 -26.6277 137.658C-27.1684 138.168 -27.9861 137.353 -27.4444 136.843C-26.8135 136.248 -26.002 135.967 -25.1939 135.698C-24.4862 135.462 -24.1855 136.576 -24.8869 136.81ZM-27.5351 159.214C-27.7029 159.5 -28.0425 159.552 -28.3251 159.421C-28.7039 159.245 -29.1221 159.251 -29.5305 159.25C-30.2747 159.25 -30.2736 158.097 -29.5305 158.097C-28.9005 158.098 -28.3193 158.157 -27.7421 158.425C-27.4582 158.557 -27.389 158.965 -27.5351 159.214ZM-29.0314 186.404C-29.3548 186.415 -29.5953 186.13 -29.6088 185.827C-29.6221 185.532 -29.376 185.302 -29.101 185.259C-29.0591 184.972 -28.8309 184.765 -28.5325 184.752C-28.2284 184.738 -27.9439 185.027 -27.955 185.329C-27.9762 185.909 -28.4499 186.382 -29.0314 186.404ZM76.1861 190.764C75.9899 190.059 75.5409 189.49 75.2017 188.856C75.0879 188.642 75.0483 188.509 74.9867 188.352C74.903 188.52 74.7404 188.645 74.496 188.646C74.0271 188.646 73.4786 188.616 73.0411 188.816C72.7565 188.946 72.4213 188.9 72.2511 188.609C72.1049 188.359 72.1747 187.95 72.4583 187.82C73.1031 187.525 73.7964 187.493 74.496 187.492C74.6688 187.492 74.7996 187.556 74.892 187.651C75.1593 183.995 75.1527 180.337 74.8998 176.678C74.63 172.769 74.009 168.937 73.3594 165.077C73.0448 163.206 72.6363 161.316 72.7157 159.41C72.7951 157.518 73.6078 155.753 73.0318 153.854C72.8008 153.093 72.4053 152.396 72.1483 151.643C71.8726 150.833 71.8971 150.033 72.0227 149.194C72.2811 147.485 72.7097 145.797 72.024 144.129C71.721 143.39 71.23 142.73 70.9934 141.965C70.6989 141.015 70.7393 139.964 70.6902 138.98C70.5906 136.993 70.5646 134.994 70.3999 133.012C70.3264 132.124 70.1662 131.282 69.8009 130.467C69.45 129.683 68.9289 128.969 68.6965 128.137C68.4655 127.319 68.4453 126.455 68.3212 125.618C68.1912 124.732 67.9877 123.86 67.7134 123.01C66.6537 119.717 64.712 116.759 62.418 114.194C59.9797 111.468 57.0649 109.415 53.9712 107.502C52.3443 106.496 50.7176 105.49 49.0919 104.484C49.0572 104.673 48.9367 104.846 48.7053 104.924C48.0947 105.127 47.4429 105.321 46.9643 105.772C46.4238 106.281 45.606 105.467 46.1477 104.956C46.7127 104.424 47.4229 104.143 48.1455 103.897C47.4048 103.431 46.6561 102.948 45.8202 102.678C45.0882 102.442 44.0084 102.648 43.415 102.112C42.9488 101.69 42.8014 100.907 42.6225 100.333C42.3988 99.6208 42.2053 98.8697 41.9209 98.1777C41.7275 97.7049 41.4459 97.2508 41.0908 96.8846C40.9349 96.2849 40.6489 95.7371 40.1436 95.4041C38.8214 94.5304 37.1973 95.3983 36.6155 96.6439C36.1347 96.6424 35.628 96.7477 35.1602 96.7765C34.1988 96.837 33.2358 96.8644 32.2729 96.8615C30.3889 96.8558 28.5035 96.7332 26.6354 96.4838C23.2948 96.0369 20.0538 95.1359 16.7694 94.4339C16.7507 94.3906 16.729 94.3474 16.703 94.3041C15.9956 93.1191 14.2329 93.3195 13.1226 93.7678C12.6463 93.9596 12.1613 94.2018 11.8884 94.6515C11.5997 94.8462 11.3499 95.0826 11.1839 95.332C10.8403 95.8466 10.5747 96.8846 9.8774 96.9711C9.41831 97.0273 8.95201 96.9394 8.4857 97.0057C7.90247 97.0864 7.37986 97.2911 6.84138 97.5247C2.74137 99.3022 -1.49722 101.279 -5.94673 101.968C-6.99035 102.129 -8.05289 102.296 -8.95951 102.88C-9.69577 103.355 -10.2647 104.006 -10.8724 104.625C-11.4643 105.227 -11.9522 105.494 -12.7968 105.602C-13.8218 105.733 -14.7096 106.016 -15.4589 106.76C-16.0811 107.378 -16.4868 108.168 -16.9747 108.886C-17.4715 109.618 -18.2004 110.031 -18.9569 110.456C-20.7456 111.462 -22.4115 112.678 -23.8624 114.135C-26.9187 117.209 -28.7694 121.159 -30.6346 125.008C-32.6514 129.171 -34.5369 133.385 -35.8448 137.831C-37.1268 142.196 -37.889 146.687 -38.2413 151.219C-38.6123 155.975 -38.6643 160.75 -38.9732 165.509C-39.1277 167.886 -39.2446 170.266 -39.363 172.645C-39.4785 174.994 -39.6474 177.349 -39.6201 179.701C-39.568 184.25 -38.6572 188.812 -37.0647 193.071C-36.6677 194.13 -36.2275 195.176 -35.7583 196.205C-35.3468 197.109 -33.9392 197.008 -33.4974 196.205C-33.3964 196.02 -33.317 195.83 -33.2506 195.637C-32.0956 195.647 -30.9292 195.558 -29.7814 195.664C-27.7545 195.853 -25.7235 195.958 -23.6908 196.084C-19.6686 196.333 -15.6393 196.499 -11.6158 196.728C-11.2255 196.75 -10.8351 196.773 -10.4449 196.796C-13.3121 187.934 -12.9403 178.353 -13.394 169.136C-13.4305 168.393 -12.2753 168.398 -12.2391 169.136C-11.7835 178.393 -12.1714 187.998 -9.20276 196.874C-8.05101 196.952 -6.90084 197.047 -5.75458 197.187C-4.82789 197.298 -3.89658 197.429 -2.96109 197.383C-1.9 197.332 -0.863449 197.09 0.171658 196.88C2.05275 196.498 3.86454 196.671 5.75285 196.906C7.77254 197.158 9.79943 197.298 11.8321 197.386C19.9715 197.742 28.1657 198.066 36.3022 197.523C38.2713 197.391 40.2362 197.207 42.1923 196.956C44.2077 196.698 46.2014 196.264 48.2151 196.018C50.2002 195.775 52.0251 196.44 53.987 196.562C55.9878 196.688 58.0423 196.271 60.0244 196.032C60.6711 195.954 61.3184 195.878 61.9659 195.802C61.1323 190.097 60.6583 184.349 60.198 178.603C60.1386 177.862 61.294 177.868 61.3529 178.603C61.8095 184.304 62.2729 190.009 63.1052 195.669C66.5375 195.271 69.9731 194.867 73.3696 194.246C74.3369 194.07 75.2984 193.783 75.8773 192.921C76.3059 192.282 76.3927 191.499 76.1861 190.764Z" fill="#FF7338"/>
<path fill-rule="evenodd" clip-rule="evenodd" d="M48.2704 50.1067C43.9315 44.1433 35.9425 42.4284 29.0144 43.8788C15.47 46.3442 2.52979 56.6629 0.136591 70.6962C-3.59711 79.186 -1.21283 92.5583 9.64576 93.5574C11.1917 93.6444 12.723 93.2891 14.2716 93.4809C23.7235 94.9886 34.8926 101.442 43.2594 93.8314C43.6788 94.1314 44.2312 94.2764 44.7014 94.0949C48.2626 92.7206 48.4299 88.7451 48.7336 85.4771C49.1257 81.2544 49.4936 77.0295 49.8366 72.8028C49.9592 65.5137 52.8525 56.4051 48.2704 50.1067Z" fill="#F9C8BE"/>
<path fill-rule="evenodd" clip-rule="evenodd" d="M22.0113 34.9111C27.7137 34.6084 38.2208 37.2166 43.1957 40.2744C51.3014 45.2565 51.9297 55.1947 51.5991 56.9131C51.4735 57.5689 51.0722 58.1758 50.4442 57.9741C50.9769 62.4891 50.935 65.0698 51.0245 69.6109L51.086 72.6426C51.1259 74.6639 51.1602 76.6853 51.1689 78.7073C51.3739 78.6311 51.576 78.7246 51.6511 78.9208C51.6698 78.9684 51.6049 78.9944 51.5731 78.967C51.2122 78.6526 51.4692 79.369 51.5933 79.5148C51.7651 79.7152 52.051 79.904 52.2516 80.0756L52.7966 80.5468L53.3416 81.017C54.0456 81.6235 54.7266 82.2313 55.3834 82.8847L55.562 83.064C56.7588 84.2779 58.2587 85.4527 59.0036 87.0227C59.7154 88.5219 59.4959 90.2215 58.3136 91.4166C57.8834 91.8506 57.381 92.1823 56.8353 92.4331C57.8069 94.0304 57.9483 96.1424 56.9349 97.7857C55.92 99.4351 53.9682 100.299 52.0885 100.166C52.0308 100.401 51.9413 100.63 51.8229 100.848C51.0775 102.215 49.595 102.393 48.1891 102.32L48.1343 102.317C44.9698 102.135 41.9251 101.344 39.1533 99.8056C38.1918 99.8704 37.3343 99.0817 37.1466 98.2168C36.6413 98.1982 36.1332 98.1562 35.6149 98.0971C34.0774 97.9199 32.5009 97.5898 31.1453 96.8099C30.9374 96.6902 31.0341 96.3745 31.2651 96.3686C32.9167 96.3311 34.5697 96.4451 36.2183 96.2664C37.7313 96.1033 39.3439 95.6869 40.7543 95.1203C43.2894 94.0996 45.4635 92.3683 46.6632 89.9693C48.2166 86.864 48.0751 83.1347 48.244 79.7613C48.4311 76.0272 48.6615 72.2966 48.9078 68.5664L49.0273 66.7784C49.2665 63.2932 49.4644 61.4287 50.0703 57.8112C48.244 57.9741 40.6578 55.2475 38.2986 50.7875C33.8211 60.2755 11.136 56.3925 10.1299 70.9992C10.1214 71.123 9.92492 71.0885 9.9177 70.9702L9.89899 70.6373C9.88993 70.4728 9.8817 70.3109 9.87613 70.1503L9.87151 69.99L9.51492 69.9943C9.51492 70.0389 9.4514 70.0549 9.43552 70.0073C9.09915 69.0543 7.49668 69.3613 6.79939 69.5878C6.1714 69.7924 5.5795 70.1066 5.04823 70.4946C3.98136 71.2731 3.15415 72.3211 2.87985 73.6314C2.35869 76.1198 3.94527 78.6541 6.05158 79.855C7.37975 80.6119 8.83496 81.1006 10.1083 81.9583C11.2329 82.7152 12.281 83.6018 13.189 84.6095C16.7866 88.6013 18.9031 94.6561 17.201 99.9252C17.071 100.327 16.7275 100.787 16.2727 100.852C15.5206 100.96 14.7684 100.851 14.3469 100.136C14.1823 99.856 14.1043 99.5374 14.1216 99.2231C13.83 100.223 12.8844 101.213 12.0125 101.585C10.8243 102.092 9.48605 101.94 8.43795 101.286L8.30553 101.384C6.60106 102.637 4.697 103.778 2.51316 103.548C0.930906 103.381 -0.622473 102.576 -1.49733 101.308C-2.66092 101.961 -3.90392 102.481 -5.18589 102.836L-5.32232 102.873C-7.08609 103.353 -9.33587 103.792 -10.9822 102.818C-12.563 101.883 -13.0885 99.84 -12.7175 98.1346C-12.6727 97.9315 -12.6164 97.734 -12.5471 97.5422C-13.7367 97.6055 -14.9248 97.4918 -16.0538 97.1429C-17.2073 96.7867 -18.3073 96.1019 -18.8603 94.992C-19.4839 93.7362 -19.3179 92.3091 -18.853 91.0304C-18.1095 88.9789 -16.9142 87.1538 -15.4258 85.5638C-13.9945 84.0335 -12.2679 82.7352 -10.4736 81.653L-10.1711 81.4723C-8.55583 80.5102 -6.60794 79.3829 -4.69938 79.4571C-4.70515 79.4326 -4.70948 79.4094 -4.71237 79.385C-5.0011 77.2615 -4.9679 75.0962 -5.03575 72.9554C-5.09783 70.9862 -5.16856 69.0169 -5.21476 67.0462C-5.28983 63.6958 -5.26529 60.3312 -4.82786 57.0039C-4.43952 54.0515 -3.74078 51.1724 -2.46603 48.4694C-1.12775 45.6296 0.887596 43.2062 3.37647 41.3004C8.59964 37.2999 15.4989 35.2571 22.0113 34.9111ZM4.27025 74.263C4.83906 73.1919 6.13402 72.8546 7.27018 73.0477C8.86254 73.3188 9.94529 74.7086 10.875 75.9037C11.8509 77.1564 9.81536 78.337 9.29131 77.1233L9.16714 76.8366C8.74658 75.874 8.24977 74.8591 7.39145 74.2313C6.47906 73.5653 5.19131 73.4672 4.38575 74.3524C4.328 74.4173 4.23128 74.3337 4.27025 74.263Z" fill="#061C2A"/>
<path fill-rule="evenodd" clip-rule="evenodd" d="M32.8702 81.061C33.6778 79.7345 35.3992 82.9841 35.5821 83.5429C35.7441 84.0379 35.851 84.545 35.9053 85.0579C36.5314 85.198 37.1816 85.1983 37.8231 85.0755C38.7766 84.8928 39.3595 84.3809 40.1882 83.9414C40.7606 83.6377 41.4819 83.9939 41.7796 84.4975C42.1297 85.0904 41.9066 85.7058 41.4462 86.1478C40.5729 86.9859 38.8547 87.1784 37.7148 86.9558C37.0617 86.8284 36.4631 86.5838 35.9345 86.2284C35.931 86.2947 35.9287 86.361 35.9234 86.4273L35.9133 86.5421C35.8257 87.4717 35.5699 88.6405 34.8468 89.2454C33.661 90.2376 32.1975 88.3294 33.3497 87.3384L33.3855 87.3086C34.1017 86.7308 34.2579 85.1803 34.2194 84.3263C34.1941 83.7689 34.0924 83.2044 33.9162 82.6735L33.8799 82.5678C33.8269 82.4179 33.2485 80.9954 33.0394 81.1765L33.0295 81.1868C32.9433 81.2895 32.804 81.1698 32.8702 81.061ZM39.3185 73.5755C40.4087 74.2372 42.0698 75.7801 40.897 77.4206C39.5165 78.867 37.529 77.2086 36.5496 76.4585C35.6414 75.8772 34.621 77.3723 35.4636 78.0511C42.541 83.2834 45.4131 73.7485 39.8699 72.7974C39.2596 72.6926 39.0329 73.3707 39.3185 73.5755ZM27.6776 67.4591C28.743 67.2704 29.8344 67.5349 30.7161 68.1574L30.7829 68.2054C31.6323 68.8257 32.5826 69.9149 32.0952 70.9841C31.8996 71.4134 31.3138 71.4808 30.942 71.2862C30.3231 70.9621 30.2109 70.1647 29.6587 69.7234C29.2059 69.3617 28.5961 69.1423 28.0128 69.1952C26.6426 69.3195 25.7998 70.669 25.3742 71.832C25.3198 71.9807 25.1011 72.0385 25.0156 71.8788C24.0121 70.0059 25.7884 67.7938 27.6776 67.4591ZM44.743 66.7523C46.7839 66.5843 49.1727 68.6972 48.6354 70.8483C48.3777 71.8805 46.8444 71.851 46.5718 70.8483C46.4218 70.2966 46.4368 69.8085 46.0391 69.3504C45.7108 68.9721 45.2444 68.7524 44.743 68.7861C44.1903 68.8233 43.6806 69.0991 43.2932 69.4867C42.9434 69.8368 42.7343 70.349 42.3719 70.6588C42.2827 70.7349 42.1633 70.7398 42.0752 70.6588C41.4516 70.0846 41.8259 68.8892 42.2213 68.2898C42.7872 67.432 43.7087 66.8375 44.743 66.7523ZM23.791 63.6438C25.1003 62.4865 27.4793 61.3688 29.2447 61.9384C30.2598 62.2658 30.7022 63.899 29.5691 64.4167C28.257 65.0161 26.7442 64.7722 25.4086 65.3935C24.8478 65.6546 24.3202 65.9808 23.9297 66.4593C23.6221 66.8364 23.3091 67.3326 22.8642 67.55C22.7472 67.6073 22.5889 67.6087 22.4952 67.5026C21.5198 66.4009 22.9394 64.3965 23.791 63.6438ZM42.4928 61.881C43.302 61.6542 44.1997 61.6588 45.0217 61.8012C45.8434 61.9437 46.6777 62.2837 47.3486 62.7798L47.4265 62.8379C48.1589 63.389 49.0328 64.1908 48.986 65.1671C48.9469 65.9824 48.088 66.5338 47.3466 66.1065C46.7421 65.758 46.4577 65.06 45.9459 64.5952C45.5237 64.2116 45.0276 63.9092 44.4984 63.6972C43.9105 63.4618 43.3217 63.3515 42.6908 63.341C42.205 63.333 41.7163 63.4921 41.2396 63.543C41.2789 63.6234 40.9021 63.586 40.6861 63.5146C40.5261 63.4466 40.5253 63.2446 40.5807 63.1135C40.8557 62.4644 41.8563 62.0591 42.4928 61.881Z" fill="black"/>
</svg>
