<svg width="157" height="25" viewBox="0 0 157 25" fill="none" xmlns="http://www.w3.org/2000/svg">
<path d="M0.44 18.016V2.416C0.44 2.096 0.592 1.856 0.896 1.696C1.2 1.536 1.568 1.456 2 1.456C2.432 1.456 2.8 1.536 3.104 1.696C3.408 1.856 3.56 2.096 3.56 2.416V8.68H8.96V2.416C8.96 2.096 9.112 1.856 9.416 1.696C9.72 1.536 10.088 1.456 10.52 1.456C10.952 1.456 11.32 1.536 11.624 1.696C11.928 1.856 12.08 2.096 12.08 2.416V18.016C12.08 18.32 11.92 18.56 11.6 18.736C11.296 18.912 10.936 19 10.52 19C10.088 19 9.72 18.912 9.416 18.736C9.112 18.56 8.96 18.32 8.96 18.016V11.128H3.56V18.016C3.56 18.32 3.4 18.56 3.08 18.736C2.776 18.912 2.416 19 2 19C1.568 19 1.2 18.912 0.896 18.736C0.592 18.56 0.44 18.32 0.44 18.016ZM14.1821 14.296V12.328C14.1821 11.016 14.6941 9.88 15.7181 8.92C16.7421 7.944 17.9661 7.456 19.3901 7.456C20.7821 7.456 21.9981 7.936 23.0381 8.896C24.0781 9.856 24.5981 11 24.5981 12.328V14.296C24.5981 15.592 24.0781 16.736 23.0381 17.728C21.9981 18.72 20.7821 19.216 19.3901 19.216C17.9981 19.216 16.7821 18.72 15.7421 17.728C14.7021 16.736 14.1821 15.592 14.1821 14.296ZM17.2781 14.296C17.2781 14.872 17.4861 15.384 17.9021 15.832C18.3181 16.28 18.8141 16.504 19.3901 16.504C19.9501 16.504 20.4381 16.28 20.8541 15.832C21.2861 15.384 21.5021 14.872 21.5021 14.296V12.328C21.5021 11.784 21.2861 11.288 20.8541 10.84C20.4381 10.392 19.9501 10.168 19.3901 10.168C18.8141 10.168 18.3181 10.392 17.9021 10.84C17.4861 11.272 17.2781 11.768 17.2781 12.328V14.296ZM26.5672 18.016V8.56C26.5672 8.272 26.7032 8.04 26.9752 7.864C27.2632 7.688 27.6312 7.6 28.0792 7.6C28.4792 7.6 28.8072 7.688 29.0632 7.864C29.3352 8.04 29.4712 8.272 29.4712 8.56V9.544C29.7272 8.984 30.1272 8.496 30.6712 8.08C31.2152 7.664 31.7992 7.456 32.4232 7.456H33.1672C33.4552 7.456 33.7112 7.592 33.9352 7.864C34.1752 8.136 34.2952 8.448 34.2952 8.8C34.2952 9.168 34.1752 9.488 33.9352 9.76C33.7112 10.032 33.4552 10.168 33.1672 10.168H32.4232C31.6872 10.168 31.0392 10.496 30.4792 11.152C29.9352 11.808 29.6632 12.664 29.6632 13.72V18.016C29.6632 18.256 29.5032 18.48 29.1832 18.688C28.8632 18.896 28.4952 19 28.0792 19C27.6472 19 27.2872 18.904 26.9992 18.712C26.7112 18.504 26.5672 18.272 26.5672 18.016ZM34.9421 16.024C34.9421 14.728 35.4221 13.816 36.3821 13.288C37.3421 12.76 38.7261 12.496 40.5341 12.496H41.5181V12.184C41.5181 11.592 41.3421 11.08 40.9901 10.648C40.6541 10.2 40.1261 9.976 39.4061 9.976C38.6861 9.976 38.0701 10.104 37.5581 10.36C37.0461 10.6 36.7501 10.72 36.6701 10.72C36.3501 10.72 36.0941 10.56 35.9021 10.24C35.7101 9.92 35.6141 9.568 35.6141 9.184C35.6141 8.72 36.0221 8.32 36.8381 7.984C37.6701 7.632 38.5421 7.456 39.4541 7.456C41.1981 7.456 42.4941 7.904 43.3421 8.8C44.1901 9.68 44.6141 10.792 44.6141 12.136V18.016C44.6141 18.288 44.4701 18.52 44.1821 18.712C43.8941 18.904 43.5341 19 43.1021 19C42.7021 19 42.3661 18.904 42.0941 18.712C41.8381 18.52 41.7101 18.288 41.7101 18.016V17.32C40.6061 18.584 39.3901 19.216 38.0621 19.216C37.1501 19.216 36.3981 18.944 35.8061 18.4C35.2301 17.856 34.9421 17.064 34.9421 16.024ZM38.0381 15.616C38.0381 16.048 38.1501 16.376 38.3741 16.6C38.6141 16.808 38.9261 16.912 39.3101 16.912C39.8221 16.912 40.3181 16.672 40.7981 16.192C41.2781 15.712 41.5181 15.184 41.5181 14.608V14.104H41.1581C40.1821 14.104 39.4141 14.208 38.8541 14.416C38.3101 14.608 38.0381 15.008 38.0381 15.616ZM51.3076 14.296V12.328C51.3076 11 51.7236 9.856 52.5556 8.896C53.4036 7.936 54.4116 7.456 55.5796 7.456C56.2836 7.456 56.8996 7.632 57.4276 7.984C57.9716 8.336 58.3876 8.768 58.6756 9.28V1.912C58.6756 1.624 58.8196 1.392 59.1076 1.216C59.4116 1.04 59.7876 0.951999 60.2356 0.951999C60.6836 0.951999 61.0516 1.04 61.3396 1.216C61.6276 1.392 61.7716 1.624 61.7716 1.912V18.016C61.7716 18.272 61.6196 18.504 61.3156 18.712C61.0276 18.904 60.6676 19 60.2356 19C59.8676 19 59.5396 18.896 59.2516 18.688C58.9796 18.48 58.8436 18.256 58.8436 18.016V17.32C58.5876 17.832 58.1476 18.28 57.5236 18.664C56.9156 19.032 56.2436 19.216 55.5076 19.216C54.4036 19.216 53.4276 18.72 52.5796 17.728C51.7316 16.736 51.3076 15.592 51.3076 14.296ZM54.4036 14.296C54.4036 14.856 54.6116 15.368 55.0276 15.832C55.4436 16.28 55.9316 16.504 56.4916 16.504C57.0516 16.504 57.5556 16.288 58.0036 15.856C58.4516 15.408 58.6756 15.032 58.6756 14.728V12.328C58.6756 11.688 58.4516 11.168 58.0036 10.768C57.5716 10.368 57.0756 10.168 56.5156 10.168C55.9396 10.168 55.4436 10.392 55.0276 10.84C54.6116 11.272 54.4036 11.768 54.4036 12.328V14.296ZM63.7524 14.296V12.328C63.7524 11.016 64.2644 9.88 65.2884 8.92C66.3124 7.944 67.5364 7.456 68.9604 7.456C70.3524 7.456 71.5684 7.936 72.6084 8.896C73.6484 9.856 74.1684 11 74.1684 12.328V14.296C74.1684 15.592 73.6484 16.736 72.6084 17.728C71.5684 18.72 70.3524 19.216 68.9604 19.216C67.5684 19.216 66.3524 18.72 65.3124 17.728C64.2724 16.736 63.7524 15.592 63.7524 14.296ZM66.8484 14.296C66.8484 14.872 67.0564 15.384 67.4724 15.832C67.8884 16.28 68.3844 16.504 68.9604 16.504C69.5204 16.504 70.0084 16.28 70.4244 15.832C70.8564 15.384 71.0724 14.872 71.0724 14.296V12.328C71.0724 11.784 70.8564 11.288 70.4244 10.84C70.0084 10.392 69.5204 10.168 68.9604 10.168C68.3844 10.168 67.8884 10.392 67.4724 10.84C67.0564 11.272 66.8484 11.768 66.8484 12.328V14.296Z" fill="white"/>
<path d="M80.3182 16.24C80.3182 15.872 80.4542 15.504 80.7262 15.136C81.0142 14.752 81.3342 14.56 81.6862 14.56C81.8942 14.56 82.1262 14.656 82.3822 14.848C82.6542 15.04 82.9102 15.256 83.1502 15.496C83.4062 15.72 83.7662 15.928 84.2302 16.12C84.6942 16.312 85.2062 16.408 85.7662 16.408C86.5342 16.408 87.1742 16.232 87.6862 15.88C88.1982 15.528 88.4542 15.008 88.4542 14.32C88.4542 13.84 88.3102 13.416 88.0222 13.048C87.7502 12.664 87.3822 12.352 86.9182 12.112C86.4702 11.856 85.9742 11.616 85.4302 11.392C84.8862 11.152 84.3342 10.888 83.7742 10.6C83.2302 10.312 82.7262 9.992 82.2622 9.64C81.8142 9.272 81.4462 8.792 81.1582 8.2C80.8862 7.592 80.7502 6.904 80.7502 6.136C80.7502 5.288 80.9182 4.544 81.2542 3.904C81.6062 3.248 82.0702 2.744 82.6462 2.392C83.2222 2.024 83.8382 1.76 84.4942 1.6C85.1502 1.424 85.8462 1.336 86.5822 1.336C86.9982 1.336 87.4382 1.368 87.9022 1.432C88.3662 1.48 88.8542 1.568 89.3662 1.696C89.8942 1.824 90.3182 2.024 90.6382 2.296C90.9742 2.568 91.1422 2.888 91.1422 3.256C91.1422 3.608 91.0302 3.976 90.8062 4.36C90.5822 4.728 90.2782 4.912 89.8942 4.912C89.7502 4.912 89.3582 4.76 88.7182 4.456C88.0782 4.152 87.3662 4 86.5822 4C85.7182 4 85.0462 4.168 84.5662 4.504C84.1022 4.824 83.8702 5.272 83.8702 5.848C83.8702 6.312 84.0622 6.72 84.4462 7.072C84.8302 7.408 85.3022 7.688 85.8622 7.912C86.4382 8.12 87.0542 8.392 87.7102 8.728C88.3822 9.048 88.9982 9.4 89.5582 9.784C90.1342 10.168 90.6142 10.728 90.9982 11.464C91.3822 12.184 91.5742 13.032 91.5742 14.008C91.5742 15.672 91.0462 16.96 89.9902 17.872C88.9502 18.768 87.5742 19.216 85.8622 19.216C84.3422 19.216 83.0382 18.904 81.9502 18.28C80.8622 17.656 80.3182 16.976 80.3182 16.24ZM93.0493 14.296V12.256C93.0493 10.944 93.5613 9.816 94.5853 8.872C95.6093 7.928 96.8493 7.456 98.3053 7.456C99.6653 7.456 100.825 7.888 101.785 8.752C102.761 9.6 103.249 10.672 103.249 11.968C103.249 12.448 103.185 12.848 103.057 13.168C102.945 13.472 102.761 13.688 102.505 13.816C102.265 13.944 102.041 14.024 101.833 14.056C101.625 14.088 101.353 14.104 101.017 14.104H96.1453V14.464C96.1453 15.152 96.4013 15.712 96.9133 16.144C97.4253 16.56 98.1053 16.768 98.9533 16.768C99.5613 16.768 100.161 16.616 100.753 16.312C101.345 16.008 101.729 15.856 101.905 15.856C102.241 15.856 102.521 16.016 102.745 16.336C102.969 16.64 103.081 16.936 103.081 17.224C103.081 17.672 102.673 18.12 101.857 18.568C101.057 19 100.057 19.216 98.8573 19.216C97.1453 19.216 95.7453 18.768 94.6573 17.872C93.5853 16.96 93.0493 15.768 93.0493 14.296ZM96.1453 12.28H99.6493C99.9053 12.28 100.081 12.24 100.177 12.16C100.289 12.064 100.345 11.888 100.345 11.632C100.345 11.072 100.137 10.616 99.7213 10.264C99.3213 9.912 98.8253 9.736 98.2333 9.736C97.6733 9.736 97.1853 9.912 96.7693 10.264C96.3533 10.6 96.1453 11.048 96.1453 11.608V12.28ZM105.106 18.016V8.56C105.106 8.272 105.242 8.04 105.514 7.864C105.802 7.688 106.17 7.6 106.618 7.6C107.018 7.6 107.346 7.688 107.602 7.864C107.874 8.04 108.01 8.272 108.01 8.56V9.544C108.266 8.984 108.666 8.496 109.21 8.08C109.754 7.664 110.338 7.456 110.962 7.456H111.706C111.994 7.456 112.25 7.592 112.474 7.864C112.714 8.136 112.834 8.448 112.834 8.8C112.834 9.168 112.714 9.488 112.474 9.76C112.25 10.032 111.994 10.168 111.706 10.168H110.962C110.226 10.168 109.578 10.496 109.018 11.152C108.474 11.808 108.202 12.664 108.202 13.72V18.016C108.202 18.256 108.042 18.48 107.722 18.688C107.402 18.896 107.034 19 106.618 19C106.186 19 105.826 18.904 105.538 18.712C105.25 18.504 105.106 18.272 105.106 18.016ZM113.097 8.776C113.097 8.44 113.329 8.136 113.793 7.864C114.273 7.592 114.729 7.456 115.161 7.456C115.625 7.456 115.929 7.632 116.073 7.984L118.737 14.944L121.401 8.032C121.545 7.648 121.841 7.456 122.289 7.456C122.673 7.456 123.113 7.6 123.609 7.888C124.105 8.16 124.353 8.464 124.353 8.8C124.353 8.944 124.321 9.08 124.257 9.208L120.153 18.712C119.977 19.08 119.505 19.264 118.737 19.264C117.969 19.264 117.505 19.08 117.345 18.712L113.217 9.208C113.137 9.096 113.097 8.952 113.097 8.776ZM125.54 3.544C125.54 3.128 125.7 2.776 126.02 2.488C126.356 2.184 126.764 2.032 127.244 2.032C127.708 2.032 128.1 2.184 128.42 2.488C128.756 2.776 128.924 3.128 128.924 3.544C128.924 3.944 128.756 4.296 128.42 4.6C128.1 4.904 127.708 5.056 127.244 5.056C126.764 5.056 126.356 4.904 126.02 4.6C125.7 4.296 125.54 3.944 125.54 3.544ZM125.708 18.016V8.56C125.708 8.272 125.852 8.04 126.14 7.864C126.428 7.688 126.796 7.6 127.244 7.6C127.692 7.6 128.06 7.688 128.348 7.864C128.652 8.04 128.804 8.272 128.804 8.56V18.016C128.804 18.256 128.644 18.48 128.324 18.688C128.02 18.896 127.66 19 127.244 19C126.812 19 126.444 18.904 126.14 18.712C125.852 18.504 125.708 18.272 125.708 18.016ZM130.808 14.296V12.376C130.808 10.904 131.24 9.72 132.104 8.824C132.968 7.912 134.264 7.456 135.992 7.456C137.08 7.456 137.992 7.648 138.728 8.032C139.464 8.416 139.832 8.848 139.832 9.328C139.832 9.664 139.712 10 139.472 10.336C139.232 10.672 138.944 10.84 138.608 10.84C138.512 10.84 138.224 10.728 137.744 10.504C137.28 10.28 136.776 10.168 136.232 10.168C134.68 10.168 133.904 10.904 133.904 12.376V14.296C133.904 15.768 134.688 16.504 136.256 16.504C136.8 16.504 137.304 16.384 137.768 16.144C138.232 15.904 138.528 15.784 138.656 15.784C139.04 15.784 139.352 15.944 139.592 16.264C139.848 16.584 139.976 16.912 139.976 17.248C139.976 17.696 139.648 18.112 138.992 18.496C138.352 18.88 137.552 19.112 136.592 19.192L136.28 20.224C137.064 20.256 137.656 20.44 138.056 20.776C138.456 21.128 138.656 21.56 138.656 22.072C138.656 22.6 138.448 23.08 138.032 23.512C137.632 23.96 137 24.184 136.136 24.184C135.656 24.184 135.192 24.12 134.744 23.992C134.312 23.88 134.096 23.712 134.096 23.488C134.096 23.344 134.144 23.16 134.24 22.936C134.352 22.712 134.488 22.6 134.648 22.6C134.696 22.6 134.864 22.656 135.152 22.768C135.44 22.88 135.736 22.936 136.04 22.936C136.792 22.936 137.168 22.672 137.168 22.144C137.168 21.616 136.784 21.32 136.016 21.256L134.696 21.136L135.248 19.168C133.776 19.04 132.664 18.544 131.912 17.68C131.176 16.8 130.808 15.672 130.808 14.296ZM141.073 14.296V12.328C141.073 11.016 141.585 9.88 142.609 8.92C143.633 7.944 144.857 7.456 146.281 7.456C147.673 7.456 148.889 7.936 149.929 8.896C150.969 9.856 151.489 11 151.489 12.328V14.296C151.489 15.592 150.969 16.736 149.929 17.728C148.889 18.72 147.673 19.216 146.281 19.216C144.889 19.216 143.673 18.72 142.633 17.728C141.593 16.736 141.073 15.592 141.073 14.296ZM144.169 14.296C144.169 14.872 144.377 15.384 144.793 15.832C145.209 16.28 145.705 16.504 146.281 16.504C146.841 16.504 147.329 16.28 147.745 15.832C148.177 15.384 148.393 14.872 148.393 14.296V12.328C148.393 11.784 148.177 11.288 147.745 10.84C147.329 10.392 146.841 10.168 146.281 10.168C145.705 10.168 145.209 10.392 144.793 10.84C144.377 11.272 144.169 11.768 144.169 12.328V14.296ZM153.722 18.664C153.418 18.344 153.266 17.96 153.266 17.512C153.266 17.064 153.418 16.68 153.722 16.36C154.042 16.04 154.434 15.88 154.898 15.88C155.346 15.88 155.73 16.04 156.05 16.36C156.37 16.68 156.53 17.064 156.53 17.512C156.53 17.944 156.37 18.328 156.05 18.664C155.73 18.984 155.346 19.144 154.898 19.144C154.434 19.144 154.042 18.984 153.722 18.664ZM153.386 2.68C153.386 2.264 153.522 1.944 153.794 1.72C154.082 1.48 154.442 1.36 154.874 1.36C155.306 1.36 155.666 1.48 155.954 1.72C156.242 1.96 156.386 2.28 156.386 2.68C156.386 3.736 156.33 5.496 156.218 7.96C156.106 10.424 156.05 12.184 156.05 13.24C156.05 13.528 155.922 13.752 155.666 13.912C155.426 14.072 155.162 14.152 154.874 14.152C154.09 14.152 153.698 13.848 153.698 13.24C153.698 12.184 153.642 10.424 153.53 7.96C153.434 5.496 153.386 3.736 153.386 2.68Z" fill="#F2A54A"/>
</svg>
